<?xml version="1.0" encoding="UTF-8" standalone="no"?>
<svg
   id="svg2"
   viewBox="0 0 1327.4947 1519.3123"
   version="1.1"
   sodipodi:docname="guitar-tap.svg"
   width="1327.4946"
   height="1519.3123"
   inkscape:version="1.2.2 (732a01da63, 2022-12-09)"
   xmlns:inkscape="http://www.inkscape.org/namespaces/inkscape"
   xmlns:sodipodi="http://sodipodi.sourceforge.net/DTD/sodipodi-0.dtd"
   xmlns="http://www.w3.org/2000/svg"
   xmlns:svg="http://www.w3.org/2000/svg"
   xmlns:rdf="http://www.w3.org/1999/02/22-rdf-syntax-ns#"
   xmlns:cc="http://creativecommons.org/ns#"
   xmlns:dc="http://purl.org/dc/elements/1.1/">
  <defs
     id="defs64">
    <linearGradient
       id="linearGradient3468"
       y2="704.89001"
       gradientUnits="userSpaceOnUse"
       y1="687.69"
       x2="359"
       x1="411.98999">
      <stop
         id="stop3464"
         stop-color="#1a1a1a"
         offset="0" />
      <stop
         id="stop3466"
         stop-color="#1b1d1b"
         offset="1" />
    </linearGradient>
  </defs>
  <sodipodi:namedview
     id="namedview62"
     pagecolor="#ffffff"
     bordercolor="#000000"
     borderopacity="0.25"
     inkscape:showpageshadow="2"
     inkscape:pageopacity="0.0"
     inkscape:pagecheckerboard="0"
     inkscape:deskcolor="#d1d1d1"
     showgrid="false"
     inkscape:zoom="0.44103654"
     inkscape:cx="275.48738"
     inkscape:cy="1175.6396"
     inkscape:window-width="2560"
     inkscape:window-height="1531"
     inkscape:window-x="-9"
     inkscape:window-y="-9"
     inkscape:window-maximized="1"
     inkscape:current-layer="svg2" />
  <g
     id="layer1"
     transform="translate(2176.3268,-294.06571)">
    <g
       id="g3951"
       transform="rotate(5.3507924,-1331.4766,1609.0282)">
      <path
         id="path2959"
         transform="translate(-694.74,66.75)"
         fill="#f5d5ae"
         d="m -516.06,307.16 c -7.1829,0 -13.031,5.0675 -13.031,11.344 0,6.2763 5.8484,11.375 13.031,11.375 7.1829,0 13,-5.0987 13,-11.375 0,-6.2763 -5.8171,-11.344 -13,-11.344 z m 2.2812,47.969 c -7.1829,0 -13,5.0987 -13,11.375 0,6.2763 5.8171,11.344 13,11.344 7.1829,0 13,-5.0675 13,-11.344 0,-6.2763 -5.8171,-11.375 -13,-11.375 z m 2.1562,45.688 c -7.1829,0 -13,5.0675 -13,11.344 0,6.2763 5.8171,11.375 13,11.375 7.1829,0 13,-5.0987 13,-11.375 0,-6.2763 -5.8171,-11.344 -13,-11.344 z" />
      <path
         id="path2966"
         fill="#f5d5ae"
         d="m -1075.7,373.91 c 7.1828,0 13.031,5.0675 13.031,11.344 0,6.2763 -5.8484,11.375 -13.031,11.375 -7.1829,0 -13,-5.0987 -13,-11.375 0,-6.2763 5.8171,-11.344 13,-11.344 z m -2.2813,47.969 c 7.1829,0 13,5.0987 13,11.375 0,6.2763 -5.8171,11.344 -13,11.344 -7.1828,0 -13,-5.0675 -13,-11.344 0,-6.2763 5.8172,-11.375 13,-11.375 z m -2.1562,45.688 c 7.1828,0 13,5.0675 13,11.344 0,6.2763 -5.8172,11.375 -13,11.375 -7.1829,0 -13,-5.0987 -13,-11.375 0,-6.2763 5.8171,-11.344 13,-11.344 z" />
      <path
         id="path2922"
         transform="translate(-694.74,66.75)"
         fill="#e8a45b"
         d="m -448.5,971.16 c -162.02,0 -210.38,64.536 -216.31,130.44 -5.0563,56.174 30.797,117.94 28.906,150 -3.8185,64.754 -110.42,119.07 -104.53,269.72 6.818,174.33 157.45,205.31 291.94,205.31 134.48,0 285.12,-30.982 291.94,-205.31 5.892,-150.65 -100.74,-204.96 -104.56,-269.72 -1.8907,-32.062 33.994,-93.826 28.938,-150 -5.9318,-65.902 -54.294,-130.44 -216.31,-130.44 z" />
      <rect
         id="rect2949"
         rx="0"
         ry="0"
         height="11.835"
         width="116.9"
         y="467.07999"
         x="-1201.7"
         fill="#cccccc" />
      <rect
         id="rect2951"
         rx="0"
         ry="0"
         height="11.835"
         width="121.49"
         y="421.41"
         x="-1204"
         fill="#cccccc" />
      <rect
         id="rect2953"
         rx="0"
         ry="0"
         height="11.835"
         width="126.32"
         y="373.42001"
         x="-1206.4"
         fill="#cccccc" />
      <path
         id="path3866"
         transform="translate(-694.74,66.75)"
         fill="#e8a45b"
         d="m -448.5,213.16 c -18.913,0 -54.345,11.792 -58.312,26.938 l 10,210 4.6562,4.6562 6.0625,9.2812 h 75.156 l 6.0625,-9.2812 4.6562,-4.6562 10,-210 c -3.9672,-15.145 -39.368,-26.938 -58.281,-26.938 z m -34.156,70.281 c 4.0867,-0.14969 8.0633,2.4009 8.375,8.0938 l 6.7812,123.94 c 0.8243,15.054 -18.266,17.268 -18.938,1.7812 l -5.3438,-123.56 c -0.2788,-6.4306 4.4934,-10.08 9.125,-10.25 z m 67.5,0 c 4.868,-0.2539 10.233,3.4411 9.9375,10.25 l -5.375,123.56 c -0.6714,15.487 -19.731,13.273 -18.906,-1.7812 l 6.7812,-123.94 c 0.29094,-5.3133 3.7763,-7.8963 7.5625,-8.0938 z" />
      <path
         id="path2916"
         transform="matrix(0.98404,0,0,0.98404,-701.9,86.279)"
         fill="#c2682c"
         d="m -353.55,1223.8 c 0,52.442 -42.513,94.954 -94.954,94.954 -52.442,0 -94.954,-42.512 -94.954,-94.954 0,-52.442 42.513,-94.954 94.954,-94.954 52.442,0 94.954,42.512 94.954,94.954 z" />
      <path
         id="path2918"
         transform="matrix(0.78191,0,0,0.78191,-792.55,333.65)"
         fill="#ecab6b"
         d="m -353.55,1223.8 c 0,52.442 -42.513,94.954 -94.954,94.954 -52.442,0 -94.954,-42.512 -94.954,-94.954 0,-52.442 42.513,-94.954 94.954,-94.954 52.442,0 94.954,42.512 94.954,94.954 z" />
      <path
         id="path2920"
         transform="matrix(0.71277,0,0,0.71277,-823.57,418.27)"
         d="m -353.55,1223.8 c 0,52.442 -42.513,94.954 -94.954,94.954 -52.442,0 -94.954,-42.512 -94.954,-94.954 0,-52.442 42.513,-94.954 94.954,-94.954 52.442,0 94.954,42.512 94.954,94.954 z" />
      <rect
         id="rect2929"
         rx="7.1429"
         ry="10.714"
         height="42.5"
         width="286.79001"
         y="1536.9"
         x="-1286.6"
         fill="#380b00" />
      <rect
         id="rect2931"
         rx="3.1578"
         ry="8.5534"
         height="33.929001"
         width="126.79"
         y="1541.1"
         x="-1206.6"
         fill="#754410" />
      <path
         id="rect2933"
         fill="#cccccc"
         transform="translate(-694.74,66.75)"
         d="m -511.91,1489.4 v 7.125 h 126.78 v -7.125 z" />
      <path
         id="path2945"
         transform="translate(-694.74,66.75)"
         fill="#b88a70"
         d="m -486.09,464.03 -13.25,715.09 h 0.0625 c 12.403,-14.081 30.542,-22.969 50.781,-22.969 20.239,0 38.379,8.888 50.781,22.969 0.004,0.01 0.0268,-0.01 0.0312,0 l -13.25,-715.09 h -75.156 z" />
      <path
         id="rect2968"
         fill="#ffffff"
         transform="translate(-694.74,66.75)"
         d="m -486.25,473.03 -0.15625,7.8125 h 75.781 l -0.15625,-7.8125 h -75.469 z m -1.0938,58.594 -0.0625,3.7812 h 77.781 l -0.0625,-3.7812 z m -0.9375,50.75 -0.0625,3.7812 h 79.656 l -0.0625,-3.7812 z m -0.875,47.719 -0.0937,3.8125 h 81.469 l -0.0937,-3.8125 h -81.281 z m -0.875,45.969 -0.0625,3.7812 h 83.156 l -0.0625,-3.7812 z m -0.8125,44.438 -0.0625,3.8125 h 84.781 l -0.0625,-3.8125 z m -0.75,39.906 -0.0625,3.7812 h 86.281 l -0.0625,-3.7812 z m -0.6875,37.625 -0.0625,3.8125 h 87.656 l -0.0625,-3.8125 z m -0.6875,37.656 -0.0937,3.7812 h 89.094 l -0.0937,-3.7812 h -88.906 z m -0.65625,35.094 -0.0625,3.7812 h 90.344 l -0.0625,-3.7812 z m -0.625,33.062 -0.0625,3.8125 h 91.594 l -0.0625,-3.8125 z m -0.59375,32.344 -0.0625,3.7812 h 92.781 l -0.0625,-3.7812 z m -0.53125,28.656 -0.0625,3.7812 h 93.844 l -0.0625,-3.7812 z m -0.5,27.75 -0.0937,3.8125 h 94.906 l -0.0937,-3.8125 h -94.719 z m -0.5,25.781 -0.0625,3.7812 h 95.844 l -0.0625,-3.7812 z m -0.46875,26 -0.0625,3.7812 h 96.781 l -0.0625,-3.7812 z m -0.4375,24 -0.0937,3.7812 h 97.719 l -0.0937,-3.7812 h -97.531 z m -0.40625,21.719 -0.0625,3.7812 h 98.469 l -0.0625,-3.7812 z m -0.375,20.437 -0.0937,3.8126 h 99.281 l -0.0937,-3.8126 h -99.094 z m -0.375,19.719 -0.0625,3.7812 h 99.969 l -0.0625,-3.7812 z" />
      <g
         id="g3021"
         stroke-linejoin="round"
         transform="matrix(-1,0,0,1,-2285.3,0)"
         stroke="#000000"
         stroke-linecap="round"
         stroke-width="2"
         fill="none">
        <path
           id="path3023"
           transform="translate(-694.74,66.75)"
           d="m -495.86,1496.5 0.25254,-7.125 16.776,-1008.6 v -7.8262 l -0.73956,-60.864 v -11.835" />
        <path
           id="path3025"
           transform="translate(-694.74,66.75)"
           d="m -477.04,1496.5 v -7.125 l 11.424,-1008.6 v -7.8262 l -7.1312,-106.83 v -12.374" />
        <path
           id="path3027"
           transform="translate(-694.74,66.75)"
           d="m -457.6,1496.5 0.12627,-7.125 5.3467,-1008.6 v -7.8262 l -25.017,-154.52 v -11.835" />
      </g>
      <g
         id="g3029"
         stroke-linejoin="round"
         transform="translate(-0.39193,0.35714)"
         stroke="#000000"
         stroke-linecap="round"
         stroke-width="2"
         fill="none">
        <path
           id="path3031"
           transform="translate(-694.74,66.75)"
           d="m -495.86,1496.5 0.25254,-7.125 16.776,-1008.6 v -7.8262 l -0.73956,-60.864 v -11.835" />
        <path
           id="path3033"
           transform="translate(-694.74,66.75)"
           d="m -477.04,1496.5 v -7.125 l 11.424,-1008.6 v -7.8262 l -7.1312,-106.83 v -12.374" />
        <path
           id="path3035"
           transform="translate(-694.74,66.75)"
           d="m -457.6,1496.5 0.12627,-7.125 5.3467,-1008.6 v -7.8262 l -25.017,-154.52 v -11.835" />
      </g>
    </g>
  </g>
  <metadata
     id="metadata59">
    <rdf:RDF>
      <cc:Work>
        <dc:format>image/svg+xml</dc:format>
        <dc:type
           rdf:resource="http://purl.org/dc/dcmitype/StillImage" />
        <cc:license
           rdf:resource="http://creativecommons.org/licenses/publicdomain/" />
        <dc:publisher>
          <cc:Agent
             rdf:about="http://openclipart.org/">
            <dc:title>Openclipart</dc:title>
          </cc:Agent>
        </dc:publisher>
        <dc:title>Guitar by Rones</dc:title>
        <dc:date>2011-02-08T14:42:23</dc:date>
        <dc:description>a guitar</dc:description>
        <dc:source>http://openclipart.org/detail/117445/guitar-by-rones-by-rones</dc:source>
        <dc:creator>
          <cc:Agent>
            <dc:title>rones</dc:title>
          </cc:Agent>
        </dc:creator>
        <dc:subject>
          <rdf:Bag>
            <rdf:li>clip art</rdf:li>
            <rdf:li>clipart</rdf:li>
            <rdf:li>guitar</rdf:li>
            <rdf:li>music</rdf:li>
            <rdf:li>strings</rdf:li>
            <rdf:li>wood</rdf:li>
            <rdf:li>гитара</rdf:li>
            <rdf:li>музыка</rdf:li>
          </rdf:Bag>
        </dc:subject>
      </cc:Work>
      <cc:License
         rdf:about="http://creativecommons.org/licenses/publicdomain/">
        <cc:permits
           rdf:resource="http://creativecommons.org/ns#Reproduction" />
        <cc:permits
           rdf:resource="http://creativecommons.org/ns#Distribution" />
        <cc:permits
           rdf:resource="http://creativecommons.org/ns#DerivativeWorks" />
      </cc:License>
    </rdf:RDF>
  </metadata>
  <g
     id="layer3"
     transform="matrix(1.5809806,0,0,1.5233684,-305.13809,-37.535161)">
    <path
       id="path2677"
       stroke="#000000"
       fill-rule="evenodd"
       fill="#814b21"
       d="m 328.73,550.27 c -88.24,10.16 -106.43,37.83 -112.54,95.35 -3.41,32.05 23.06,58.66 24.69,90.85 2.11,41.97 -61.66,107.79 -44.41,180.65 8.04,33.97 40.81,67.15 79.12,82.66 -20.26,-11.26 -35.43,-28.15 -40.62,-50.09 -17.25,-72.87 47.52,-153.5 45.41,-195.47 -1.63,-32.19 -31.07,-70.61 -27.66,-102.66 6.11,-57.52 35.6,-81.24 100.94,-93.7 -11.94,-4.39 -12.7,-3.57 -24.93,-7.59 z" />
    <path
       id="path2675"
       stroke="#000000"
       fill-rule="evenodd"
       fill="#f4b679"
       d="m 377.11,554.81 c -88.23,10.16 -118.27,39.22 -124.39,96.75 -3.4,32.04 26.03,70.48 27.65,102.67 2.11,41.97 -62.66,122.6 -45.41,195.46 12.31,52.01 80.75,75.71 140.18,63.21 31.38,-6.6 73.11,-17.03 102.67,-31.62 46.19,-22.79 91.25,-79.86 84.9,-150.05 -3.84,-42.44 -60.19,-87.67 -65.16,-125.38 -4.62,-35.03 23.62,-94.59 -6.91,-128.33 -32.24,-35.64 -79.98,-26.57 -113.53,-22.71 z" />
    <path
       id="path2688"
       stroke="#000000"
       fill-rule="evenodd"
       fill="#814b21"
       d="m 328.09,197.24 c -4.92,-12.15 -11.43,-23.9 -23.74,-34.21 L 288.3,31.8 c 4.89,-4.573 9.77,-3.528 14.66,-0.7 9.27,-9.039 16.08,-6.975 21.64,0.698 5.12,-0.64 10.24,-2.941 15.36,3.49 l 33.5,127.74 c -8.53,6.16 -8.25,19.37 -7.68,32.81 l -37.69,1.4 z" />
    <path
       id="path2710"
       stroke="#000000"
       fill-rule="evenodd"
       fill="#f4b679"
       d="m 288.5,33.375 c -1.04,0.819 -2.19,1.915 -3.69,3.313 l 16.07,131.22 c 12.3,10.3 23.7,26.25 28.62,38.4 l -1.41,-9.06 c -4.92,-12.15 -11.44,-23.92 -23.75,-34.22 L 288.5,33.368 Z" />
    <path
       id="path2713"
       stroke="#000000"
       fill-rule="evenodd"
       fill="#814b21"
       d="m 352.43,557.77 -22.7,-7.9 c -0.17,-17.6 2.8,-25.81 7.89,-27.64 4.17,5.93 6.92,11.22 13.71,9.3 z" />
    <path
       id="path2715"
       stroke="#000000"
       fill-rule="evenodd"
       fill="#1a1a1a"
       d="m 333.8,834.83 0.86,28.98 c 32.31,-16.08 34.17,7.43 75.03,-2.97 37.45,-9.53 34.48,-35.08 62.19,-29.61 l -0.98,-26.66 z" />
    <path
       id="path2717"
       stroke="#000000"
       fill-rule="evenodd"
       fill="#ffccaa"
       d="m 371.95,834.55 0.26,6.8 67.13,-15.29 0.3,-6.27 z" />
    <path
       id="path3304"
       d="m 428.61,697.92 a 39.79,50.087259 0 1 1 -79.58,0 39.79,50.087259 0 1 1 79.58,0 z"
       transform="matrix(1.2903,0.27188,-0.30164,1.163,97.632,-221.59)"
       stroke="#000000"
       stroke-width="0.79487"
       fill="#808080" />
    <path
       id="path3302"
       d="m 428.61,697.92 a 39.79,50.087259 0 1 1 -79.58,0 39.79,50.087259 0 1 1 79.58,0 z"
       transform="matrix(1.1574,0.24176,-0.27055,1.0342,127.64,-119.96)"
       stroke="#000000"
       stroke-width="0.89005"
       fill="#f4b679" />
    <path
       id="path2686"
       stroke="#000000"
       fill-rule="evenodd"
       fill="#1a1a1a"
       d="m 360.2,651.68 54.45,-6.3 -47.47,-448.84 -39.09,0.7 z" />
    <path
       id="path2723"
       d="m 428.61,697.92 a 39.79,50.087259 0 1 1 -79.58,0 39.79,50.087259 0 1 1 79.58,0 z"
       transform="matrix(0.97409,0.21489,-0.22771,0.91922,169,-29.268)"
       stroke="#000000"
       stroke-width="1.0291"
       fill="url(#linearGradient3468)"
       style="fill:url(#linearGradient3468)" />
    <path
       id="path3306"
       d="m 428.61,697.92 a 39.79,50.087259 0 1 1 -79.58,0 39.79,50.087259 0 1 1 79.58,0 z"
       transform="matrix(1.4569,0.29718,-0.34059,1.2713,60.039,-306.97)"
       stroke="#000000"
       stroke-width="0.7155"
       fill="none" />
    <g
       id="g3319"
       stroke="#000000"
       fill="#d6d6d7">
      <path
         id="path3310"
         d="m 307.75,62.188 c -4.5,0 -8.13,3.091 -8.13,6.906 0,3.814 3.63,6.906 8.13,6.906 4.5,0 8.16,-3.092 8.16,-6.906 0,-1.002 -0.24,-1.953 -0.69,-2.813 L 309,72.062 c -4.75,-1.116 -4.36,-3.505 -3.97,-5.906 l 4.75,-3.75 c -0.64,-0.139 -1.33,-0.218 -2.03,-0.218 z" />
      <path
         id="path3312"
         stroke-width="1px"
         fill-rule="evenodd"
         d="m 305.05,66.143 c -0.39,2.401 -0.8,4.807 3.95,5.923 l 6.91,-6.417 c 2.14,-2.938 -1.56,-6.362 -3.95,-4.936 z" />
    </g>
    <g
       id="g3323"
       stroke="#000000"
       fill="#d6d6d7"
       transform="translate(3.9488,30.11)">
      <path
         id="path3325"
         d="m 307.75,62.188 c -4.5,0 -8.13,3.091 -8.13,6.906 0,3.814 3.63,6.906 8.13,6.906 4.5,0 8.16,-3.092 8.16,-6.906 0,-1.002 -0.24,-1.953 -0.69,-2.813 L 309,72.062 c -4.75,-1.116 -4.36,-3.505 -3.97,-5.906 l 4.75,-3.75 c -0.64,-0.139 -1.33,-0.218 -2.03,-0.218 z" />
      <path
         id="path3327"
         stroke-width="1px"
         fill-rule="evenodd"
         d="m 305.05,66.143 c -0.39,2.401 -0.8,4.807 3.95,5.923 l 6.91,-6.417 c 2.14,-2.938 -1.56,-6.362 -3.95,-4.936 z" />
    </g>
    <g
       id="g3329"
       stroke="#000000"
       fill="#d6d6d7"
       transform="translate(8.8849,62.688)">
      <path
         id="path3331"
         d="m 307.75,62.188 c -4.5,0 -8.13,3.091 -8.13,6.906 0,3.814 3.63,6.906 8.13,6.906 4.5,0 8.16,-3.092 8.16,-6.906 0,-1.002 -0.24,-1.953 -0.69,-2.813 L 309,72.062 c -4.75,-1.116 -4.36,-3.505 -3.97,-5.906 l 4.75,-3.75 c -0.64,-0.139 -1.33,-0.218 -2.03,-0.218 z" />
      <path
         id="path3333"
         stroke-width="1px"
         fill-rule="evenodd"
         d="m 305.05,66.143 c -0.39,2.401 -0.8,4.807 3.95,5.923 l 6.91,-6.417 c 2.14,-2.938 -1.56,-6.362 -3.95,-4.936 z" />
    </g>
    <g
       id="g3335"
       stroke="#000000"
       fill="#d6d6d7"
       transform="translate(45.905,63.181)">
      <path
         id="path3337"
         d="m 307.75,62.188 c -4.5,0 -8.13,3.091 -8.13,6.906 0,3.814 3.63,6.906 8.13,6.906 4.5,0 8.16,-3.092 8.16,-6.906 0,-1.002 -0.24,-1.953 -0.69,-2.813 L 309,72.062 c -4.75,-1.116 -4.36,-3.505 -3.97,-5.906 l 4.75,-3.75 c -0.64,-0.139 -1.33,-0.218 -2.03,-0.218 z" />
      <path
         id="path3339"
         stroke-width="1px"
         fill-rule="evenodd"
         d="m 305.05,66.143 c -0.39,2.401 -0.8,4.807 3.95,5.923 l 6.91,-6.417 c 2.14,-2.938 -1.56,-6.362 -3.95,-4.936 z" />
    </g>
    <g
       id="g3341"
       stroke="#000000"
       fill="#d6d6d7"
       transform="translate(38.995,31.097)">
      <path
         id="path3343"
         d="m 307.75,62.188 c -4.5,0 -8.13,3.091 -8.13,6.906 0,3.814 3.63,6.906 8.13,6.906 4.5,0 8.16,-3.092 8.16,-6.906 0,-1.002 -0.24,-1.953 -0.69,-2.813 L 309,72.062 c -4.75,-1.116 -4.36,-3.505 -3.97,-5.906 l 4.75,-3.75 c -0.64,-0.139 -1.33,-0.218 -2.03,-0.218 z" />
      <path
         id="path3345"
         stroke-width="1px"
         fill-rule="evenodd"
         d="m 305.05,66.143 c -0.39,2.401 -0.8,4.807 3.95,5.923 l 6.91,-6.417 c 2.14,-2.938 -1.56,-6.362 -3.95,-4.936 z" />
    </g>
    <g
       id="g3347"
       stroke="#000000"
       fill="#d6d6d7"
       transform="translate(30.603)">
      <path
         id="path3349"
         d="m 307.75,62.188 c -4.5,0 -8.13,3.091 -8.13,6.906 0,3.814 3.63,6.906 8.13,6.906 4.5,0 8.16,-3.092 8.16,-6.906 0,-1.002 -0.24,-1.953 -0.69,-2.813 L 309,72.062 c -4.75,-1.116 -4.36,-3.505 -3.97,-5.906 l 4.75,-3.75 c -0.64,-0.139 -1.33,-0.218 -2.03,-0.218 z" />
      <path
         id="path3351"
         stroke-width="1px"
         fill-rule="evenodd"
         d="m 305.05,66.143 c -0.39,2.401 -0.8,4.807 3.95,5.923 l 6.91,-6.417 c 2.14,-2.938 -1.56,-6.362 -3.95,-4.936 z" />
    </g>
    <path
       id="path3353"
       d="m 288.02,65.649 -5.68,0.494 c -0.84,-5.417 -6.79,-12.172 -14.81,-3.455 -4.6,5 -2.48,14.966 5.43,17.769 7.59,2.691 12.1,-7.149 9.87,-9.378 h 5.93 z"
       fill-rule="evenodd"
       stroke="#000000"
       stroke-width="1px"
       fill="#cb9765" />
    <path
       id="path3355"
       d="m 292.21,98.227 -5.67,0.494 c -0.85,-5.417 -6.79,-12.172 -14.81,-3.456 -4.6,5.005 -2.48,14.965 5.43,17.775 7.59,2.69 12.1,-7.15 9.87,-9.38 h 5.92 z"
       fill-rule="evenodd"
       stroke="#000000"
       stroke-width="1px"
       fill="#cb9765" />
    <path
       id="path3357"
       d="m 296.16,128.83 -5.67,0.49 c -0.85,-5.41 -6.79,-12.17 -14.81,-3.45 -4.6,5 -2.48,14.97 5.43,17.77 7.59,2.69 12.1,-7.15 9.87,-9.38 h 5.92 z"
       fill-rule="evenodd"
       stroke="#000000"
       stroke-width="1px"
       fill="#cb9765" />
    <path
       id="path3359"
       d="m 348.78,60.719 c -0.73,-0.008 -1.39,0.145 -2.03,0.375 l 5.47,20.937 c 6.7,-3.438 8.27,-12.446 3.97,-17.125 -2.76,-2.996 -5.27,-4.165 -7.41,-4.187 z"
       fill-rule="evenodd"
       stroke="#000000"
       stroke-width="1px"
       fill="#cb9765" />
    <path
       id="path3364"
       d="m 357.67,94.037 c -0.73,-0.008 -1.4,0.146 -2.04,0.375 l 5.47,20.938 c 6.7,-3.44 8.28,-12.45 3.97,-17.126 -2.75,-2.996 -5.26,-4.164 -7.4,-4.187 z"
       fill-rule="evenodd"
       stroke="#000000"
       stroke-width="1px"
       fill="#cb9765" />
    <path
       id="path3366"
       d="m 365.56,124.15 c -0.72,-0.01 -1.39,0.14 -2.03,0.37 l 5.47,20.94 c 6.7,-3.44 8.27,-12.45 3.97,-17.13 -2.76,-2.99 -5.26,-4.16 -7.41,-4.18 z"
       fill-rule="evenodd"
       stroke="#000000"
       stroke-width="1px"
       fill="#cb9765" />
    <path
       id="path3398"
       stroke="#000000"
       fill-rule="evenodd"
       fill="#fff6ed"
       d="m 327.7,197.95 0.76,6.76 40.33,-1.61 -0.91,-6.27 z" />
    <path
       id="path3400"
       d="m 331.09,239.6 0.71,3.79 40.57,-1.66 -0.85,-4.68 z"
       fill-rule="evenodd"
       stroke="#000000"
       stroke-width="0.75163"
       fill="#fff6ed" />
    <path
       id="path3402"
       d="m 333.19,270.8 0.67,3.79 40.59,-1.24 -0.81,-4.68 z"
       fill-rule="evenodd"
       stroke="#000000"
       stroke-width="0.75163"
       fill="#fff6ed" />
    <path
       id="path3404"
       d="m 335.3,303.73 0.73,3.77 44,-1.46 -0.88,-4.66 z"
       fill-rule="evenodd"
       stroke="#000000"
       stroke-width="0.78034"
       fill="#fff6ed" />
    <path
       id="path3406"
       d="m 337.39,333.85 0.76,3.76 44.67,-1.66 -0.91,-4.65 z"
       fill-rule="evenodd"
       stroke="#000000"
       stroke-width="0.78593"
       fill="#fff6ed" />
    <path
       id="path3408"
       d="m 339.48,363.17 0.77,3.76 44.67,-1.66 -0.92,-4.65 z"
       fill-rule="evenodd"
       stroke="#000000"
       stroke-width="0.78593"
       fill="#fff6ed" />
    <path
       id="path3410"
       d="m 341.58,389.44 0.85,3.74 45.99,-2.53 -1.02,-4.62 z"
       fill-rule="evenodd"
       stroke="#000000"
       stroke-width="0.79696"
       fill="#fff6ed" />
    <path
       id="path3414"
       d="m 342.92,413.57 0.85,2.71 46.11,-1.84 -1.02,-3.34 z"
       fill-rule="evenodd"
       stroke="#000000"
       stroke-width="0.67885"
       fill="#fff6ed" />
    <path
       id="path3416"
       d="m 344.32,437.31 0.9,2.69 48.84,-1.83 -1.08,-3.33 z"
       fill-rule="evenodd"
       stroke="#000000"
       stroke-width="0.69736"
       fill="#fff6ed" />
    <path
       id="path3418"
       d="m 346.44,460.06 1.03,2.65 48.69,-4.01 -1.25,-3.28 z"
       fill-rule="evenodd"
       stroke="#000000"
       stroke-width="0.69771"
       fill="#fff6ed" />
    <path
       id="path3420"
       d="m 347.83,481 1.04,2.65 48.69,-4.01 -1.25,-3.28 z"
       fill-rule="evenodd"
       stroke="#000000"
       stroke-width="0.69771"
       fill="#fff6ed" />
    <path
       id="path3422"
       d="m 349.93,501.94 1.03,2.66 48.69,-4.02 -1.25,-3.28 z"
       fill-rule="evenodd"
       stroke="#000000"
       stroke-width="0.69771"
       fill="#fff6ed" />
    <path
       id="path3424"
       d="m 351.32,519.39 1.04,2.66 48.69,-4.02 -1.25,-3.28 z"
       fill-rule="evenodd"
       stroke="#000000"
       stroke-width="0.69771"
       fill="#fff6ed" />
    <path
       id="path3426"
       d="m 352.72,537.54 1.04,2.66 48.68,-4.02 -1.24,-3.28 z"
       fill-rule="evenodd"
       stroke="#000000"
       stroke-width="0.69771"
       fill="#fff6ed" />
    <path
       id="path3428"
       d="m 352.73,554.29 1.11,2.65 52.08,-4 -1.33,-3.27 z"
       fill-rule="evenodd"
       stroke="#000000"
       stroke-width="0.7205"
       fill="#fff6ed" />
    <path
       id="path3430"
       d="m 354.13,571.05 1.11,2.64 52.08,-4 -1.34,-3.27 z"
       fill-rule="evenodd"
       stroke="#000000"
       stroke-width="0.7205"
       fill="#fff6ed" />
    <path
       id="path3432"
       d="m 354.13,586.4 1.11,2.65 52.08,-4 -1.34,-3.27 z"
       fill-rule="evenodd"
       stroke="#000000"
       stroke-width="0.7205"
       fill="#ffccaa" />
    <path
       id="path3434"
       d="m 354.13,586.4 1.11,2.65 52.08,-4 -1.34,-3.27 z"
       fill-rule="evenodd"
       stroke="#000000"
       stroke-width="0.7205"
       fill="#fff6ed" />
    <path
       id="path3436"
       d="m 355.52,599.67 1.11,2.64 52.08,-4 -1.33,-3.27 z"
       fill-rule="evenodd"
       stroke="#000000"
       stroke-width="0.7205"
       fill="#fff6ed" />
    <path
       id="path3438"
       d="m 357.62,612.23 1.11,2.65 52.08,-4 -1.34,-3.27 z"
       fill-rule="evenodd"
       stroke="#000000"
       stroke-width="0.7205"
       fill="#fff6ed" />
    <path
       id="path3440"
       d="m 358.31,624.1 1.11,2.64 52.09,-4 -1.34,-3.27 z"
       fill-rule="evenodd"
       stroke="#000000"
       stroke-width="0.7205"
       fill="#fff6ed" />
    <path
       id="path3442"
       d="m 359.74,637.92 1.16,2.62 51.99,-5.09 -1.4,-3.24 z"
       fill-rule="evenodd"
       stroke="#000000"
       stroke-width="0.7205"
       fill="#fff6ed" />
    <g
       id="g3470"
       stroke="#888488"
       stroke-width="2"
       fill="none">
      <path
         id="path3372"
         d="M 390.91,849.92 340.65,195.14 316.22,100.91" />
      <path
         id="path3368"
         d="M 381.14,849.92 333.67,195.14 321.81,135.81" />
      <path
         id="path3378"
         d="M 434.19,837.36 367.18,195.14 355.31,138.6" />
      <path
         id="path3374"
         d="M 403.48,849.92 347.63,195.14 314.13,72.28" />
      <path
         id="path3376"
         d="M 425.82,842.94 360.2,193.05 341.35,102.3" />
      <path
         id="path3370"
         d="M 413.95,849.23 353.92,193.75 330.88,70.89" />
    </g>
  </g>
  <path
     id="path2478"
     style="fill:#f5c8a1;fill-rule:evenodd;stroke:#000000;stroke-width:2.24786px;fill-opacity:1"
     d="m 830.14122,315.24375 4.52125,23.95025 -26.25158,-7.28672 29.24206,23.26057 0.67978,25.07819 -9.10637,0.20285 -35.6505,-19.63712 -33.23128,-16.9951 c 0,0 -29.35085,-12.25799 -39.6467,-13.39544 -10.31247,-1.10639 -23.80867,-4.65146 -33.42445,-3.45992 -9.63242,1.22284 -22.30156,3.33195 -24.69854,6.58578 -2.37333,3.24655 -2.89966,27.01575 -2.89966,27.01575 l 5.73513,16.8208 -1.5463,8.90074 59.42056,192.1367 10.52017,1.90576 37.18555,87.50157 28.44273,100.23636 11.12259,29.54083 2.6506,3.43463 3.54023,14.94684 c 0,0 -4.73212,20.82791 -11.6973,25.45408 -6.94852,4.59536 -20.72413,8.7347 -28.81808,9.49525 -8.07726,0.72925 -22.65625,-0.79285 -28.83257,-4.83953 -6.17632,-4.04693 -12.32121,-16.53957 -12.32121,-16.53957 l 1.95606,-13.2289 -13.03027,-47.53789 -30.02045,-82.88966 -20.33432,-86.66238 3.08481,-9.36303 -59.57529,-187.0232 -5.72061,-2.48625 -4.60637,-12.95468 -27.32446,-28.06806 c 0,0 -17.06785,-10.0462 -26.59923,-11.38725 -9.53842,-1.36508 -27.8438,-4.27456 -38.54238,-1.05981 -10.69861,3.2145 -25.16205,13.4633 -25.16205,13.4633 l -14.3087,5.13529 -33.68022,4.21747 c 0,0 -9.00532,-2.36104 -14.32319,-9.19925 -5.31787,-6.8382 -14.43848,-43.71935 -12.94589,-50.07047 1.46891,-6.34411 6.32434,-23.83982 10.76923,-28.54462 4.4449,-4.70481 47.13045,-6.56149 47.13045,-6.56149 l 21.12663,9.66255 c 0,0 15.8695,0.29851 23.51473,-1.99893 7.64523,-2.29718 24.89173,-20.12069 24.89173,-20.12069 l 10.9307,-10.88489 31.48535,-6.09143 c 0,0 52.06999,-3.84057 61.17636,-4.04342 9.08272,-0.19534 46.46491,5.44407 58.74796,7.65611 12.28302,2.21178 52.07671,18.93266 58.25303,22.97934 6.17635,4.04693 67.63721,43.74464 68.17028,42.74869 z" />
</svg>
